<?xml version="1.0" encoding="utf-8"?>
<?xml-stylesheet type="text/xsl" href="rss1.xsl"?>
<rss version="2.0" xmlns:atom="http://www.w3.org/2005/Atom" xmlns:content="http://purl.org/rss/1.0/modules/content/" xmlns:dc="http://purl.org/dc/elements/1.1/" xmlns:media="http://search.yahoo.com/mrss/">
<channel>
 <title>Getty</title>
 <link>http://www.gettyimg.com/</link>
 <atom:link href="http://www.gettyimg.com/" rel="self" type="application/rss+xml" />

 
                <item>
                <title><![CDATA[【Requests】[REQ VID] - Bee Gees - Live At South Africa At One Night Only Tour (1998) - HQ FULL CONCERT]]></title>
                <link><![CDATA[https://sharemania.us/threads/bee-gees-live-at-south-africa-at-one-night-only-tour-1998-hq-full-concert.222103/]]></link>
                <description><![CDATA[<article>
<blockquote class="messageText SelectQuoteContainer ugc baseHtml">
Anyone??
<div class="messageTextEndMarker">&nbsp;</div>
</blockquote>
</article>]]></description>
                <author><![CDATA[Robert Forever]]></author>
                </item>

                
                <item>
                <title><![CDATA[【Requests】[REQ AUD] - Becky G - Play It Again (Una y Otra Vez) [iTunes Plus M4A]]]></title>
                <link><![CDATA[https://sharemania.us/threads/becky-g-play-it-again-una-y-otra-vez-itunes-plus-m4a.222102/]]></link>
                <description><![CDATA[<article>
<blockquote class="messageText SelectQuoteContainer ugc baseHtml">
Hi! I'm looking for<b> Becky G - Play It Again (Una y Otra Vez)</b> from iTunes in *.m4a format <br>
<a href="https://music.apple.com/br/album/play-it-again-una-y-otra-vez-single/686559296" target="_blank" class="externalLink" rel="nofollow">https://music.apple.com/br/album/play-it-again-una-y-otra-vez-single/686559296</a><img src="https://sun9-80.userapi.com/impf/c623128/v623128431/3255a/iGtLXG_wa6o.jpg?size=600x600&amp;quality=96&amp;sign=8763695c811c2a7f1074f84f56b21fc4&amp;c_uniq_tag=EnBeIja76m9vy2tDqOdG1jOR_o9_wXZ2kO91VTEvkzY&amp;type=album" class="bbCodeImage LbImage" alt="[​IMG]" data-url="https://sun9-80.userapi.com/impf/c623128/v623128431/3255a/iGtLXG_wa6o.jpg?size=600x600&amp;quality=96&amp;sign=8763695c811c2a7f1074f84f56b21fc4&amp;c_uniq_tag=EnBeIja76m9vy2tDqOdG1jOR_o9_wXZ2kO91VTEvkzY&amp;type=album" style="">
<div class="messageTextEndMarker">&nbsp;</div>
</blockquote>
</article>]]></description>
                <author><![CDATA[forceghostin]]></author>
                </item>

                
                <item>
                <title><![CDATA[【HD Live Performances】HDTV - Aurora - Lollapalooza Brasil, Brazil, 2023 [1080p]]]></title>
                <link><![CDATA[https://sharemania.us/threads/aurora-lollapalooza-brasil-brazil-2023-1080p.222101/]]></link>
                <description><![CDATA[<article>
<blockquote class="messageText SelectQuoteContainer ugc baseHtml">
Recorded: ilya2129 from RuTracker<br>
Processed: me (caladan from sharemania.us)<br>
<br>
This is an awesome show by the very talented Norwegian artist Aurora. I got a video recording from RuTracker but it had a few issues (interlaced, 3 audio glitches in the midde of songs, audio slightly de-synced with the video and the volume too low, no chapters for songs), so I fixed them.<br>
<br>
<div class="ToggleTriggerAnchor bbCodeSpoilerContainer">
<button type="button" class="button bbCodeSpoilerButton ToggleTrigger Tooltip JsOnly" data-target="> .SpoilerTarget"><span>Spoiler</span></button>
<div class="SpoilerTarget bbCodeSpoilerText">Video:<br>
I deinterlaced the video using Avisynth QTGMC (the best deinterlacer) for a smooth double frame rate (59.94fps). I saved the video to MP4 AVC CRF 18 using FFmpeg. The video has enough bitrate to look fine on every display.<br>
<br>
Audio:<br>
I extracted the AC3 audio track. This track had 6 channels but only 2 were used. Using Audacity, I removed the empty channels, made the track stereo, raised the volume without clipping with the Amplify feature, surgically removed 3 broadcast glitches (the audio was noticeably silent for a faction of a second; these glitches are on all recordings I've seen of this show) and I added silence after the respective songs to maintain sync with the video. I saved the audio to AAC 256kbps CBR using dBPowerAmp.<br>
<br>
Chapters:<br>
I added chapters with titles for each song.<br>
<br>
Muxing:<br>
I used MKVmerge to put video, audio and chapters together in a MKV file. I synchronized audio and video tracks.</div>
</div><br>
<b>Highly recommended recording for anyone with good taste in pop music. It has excellent quality and excellent setlist.</b><br>
<br>
Setlist:<br>
1. Heathens<br>
2. Blood in the Wine<br>
3. Queendom<br>
4. The River<br>
5. All Is Soft Inside<br>
6. Daydreamer<br>
7. Exist for Love<br>
8. Runaway<br>
9. Churchyard<br>
10. The Seed<br>
11. Running With the Wolves<br>
12. Cure for Me<br>
13. Giving in to the Love<br>
<br>
<img src="https://i.postimg.cc/pL0kHf2B/Aurora-Lollapalooza-Brasil-Brazil-2023-mkv.jpg" class="bbCodeImage LbImage" alt="[​IMG]" data-url="https://i.postimg.cc/pL0kHf2B/Aurora-Lollapalooza-Brasil-Brazil-2023-mkv.jpg" style=""><br>
<br>
<div class="ToggleTriggerAnchor bbCodeSpoilerContainer">
<button type="button" class="button bbCodeSpoilerButton ToggleTrigger Tooltip JsOnly" data-target="> .SpoilerTarget"><span>Spoiler: <span class="SpoilerTitle">MediaInfo</span></span></button>
<div class="SpoilerTarget bbCodeSpoilerText">General<br>
Unique ID : 37004038274362721418189704909148703497 (0x1BD6B7F21443097CCA7476AEE5DCCB09)<br>
Complete name : E:\Concert Videos (A-L)\Aurora - Lollapalooza Brasil, Brazil, 2023\Aurora - Lollapalooza Brasil, Brazil, 2023-caladan.mkv<br>
Format : Matroska<br>
Format version : Version 4<br>
File size : 6.01 GiB<br>
Duration : 58 min 48 s<br>
Overall bit rate : 14.6 Mb/s<br>
Encoded date : UTC 2023-06-05 01:57:46<br>
Writing application : mkvmerge v67.0.0 ('Under Stars') 64-bit<br>
Writing library : libebml v1.4.2 + libmatroska v1.6.4<br>
<br>
Video<br>
ID : 1<br>
Format : AVC<br>
Format/Info : Advanced Video Codec<br>
Format profile : High@L5<br>
Format settings : CABAC / 8 Ref Frames<br>
Format settings, CABAC : Yes<br>
Format settings, Reference frames : 8 frames<br>
Codec ID : V_MPEG4/ISO/AVC<br>
Duration : 58 min 48 s<br>
Bit rate : 14.4 Mb/s<br>
Width : 1 920 pixels<br>
Height : 1 080 pixels<br>
Display aspect ratio : 16:9<br>
Frame rate mode : Constant<br>
Frame rate : 59.940 (60000/1001) FPS<br>
Color space : YUV<br>
Chroma subsampling : 4:2:0<br>
Bit depth : 8 bits<br>
Scan type : Progressive<br>
Bits/(Pixel*Frame) : 0.116<br>
Stream size : 5.90 GiB (98%)<br>
Writing library : x264 core 164 r3099 e067ab0<br>
Encoding settings : cabac=1 / ref=8 / deblock=1:0:0 / analyse=0x3:0x133 / me=umh / subme=9 / psy=1 / psy_rd=1.00:0.00 / mixed_ref=1 / me_range=16 / chroma_me=1 / trellis=2 / 8x8dct=1 / cqm=0 / deadzone=21,11 / fast_pskip=1 / chroma_qp_offset=-2 / threads=6 / lookahead_threads=1 / sliced_threads=0 / nr=0 / decimate=1 / interlaced=0 / bluray_compat=0 / constrained_intra=0 / bframes=3 / b_pyramid=2 / b_adapt=2 / b_bias=0 / direct=3 / weightb=1 / open_gop=0 / weightp=2 / keyint=250 / keyint_min=25 / scenecut=40 / intra_refresh=0 / rc_lookahead=60 / rc=crf / mbtree=1 / crf=18.0 / qcomp=0.60 / qpmin=0 / qpmax=69 / qpstep=4 / ip_ratio=1.40 / aq=1:1.00<br>
Default : Yes<br>
Forced : No<br>
<br>
Audio<br>
ID : 2<br>
Format : AAC LC<br>
Format/Info : Advanced Audio Codec Low Complexity<br>
Codec ID : A_AAC-2<br>
Duration : 58 min 48 s<br>
Bit rate : 256 kb/s<br>
Channel(s) : 2 channels<br>
Channel layout : L R<br>
Sampling rate : 48.0 kHz<br>
Frame rate : 46.875 FPS (1024 SPF)<br>
Compression mode : Lossy<br>
Delay relative to video : 217 ms<br>
Stream size : 108 MiB (2%)<br>
Language : English<br>
Default : Yes<br>
Forced : No<br>
<br>
Menu<br>
00:00:00.000 : :Intro<br>
00:00:19.200 : :Heathens<br>
00:04:48.230 : :Blood in the Wine<br>
00:08:39.000 : :Queendom<br>
00:13:00.140 : :The River<br>
00:16:59.240 : :All Is Soft Inside<br>
00:21:45.370 : <img src="styles/default/xenforo/smilies/exciting-48.png" class="mceSmilie" alt=":D" title="Big Grin    :D">aydreamer<br>
00:27:40.610 : :Exist for Love<br>
00:32:09.350 : :Runaway<br>
00:36:30.620 : :Churchyard<br>
00:41:24.700 : :The Seed<br>
00:46:34.000 : :Running With the Wolves<br>
00:50:54.700 : :Cure for Me<br>
00:54:28.650 : :Giving in to the Love</div>
</div><br>
<div class="bbCodeBlock bbCodeVfcHH HiddenContent">
<div class="attribution type">Hidden Content:</div>
<blockquote>You must reply before you can see the hidden data contained here.</blockquote>
</div>
<div class="messageTextEndMarker">&nbsp;</div>
</blockquote>
</article>]]></description>
                <author><![CDATA[caladan]]></author>
                </item>

                </channel></rss>